<svg width="20" height="22" viewBox="0 0 20 22" fill="none" xmlns="http://www.w3.org/2000/svg">
<path d="M5.15026 10.1735V10.1618M14.3497 10.1735V10.1618M5.15026 6.63235V5.45588C5.15026 4.2078 5.63488 3.01085 6.49749 2.12832C7.36011 1.2458 8.53003 0.75 9.74999 0.75C10.97 0.75 12.1399 1.2458 13.0025 2.12832C13.8651 3.01085 14.3497 4.2078 14.3497 5.45588V6.63235M5.15026 6.63235H3.81665C2.62051 6.63235 1.62406 7.57038 1.52473 8.78989L0.758103 18.2016C0.646364 19.5734 1.70451 20.75 3.05002 20.75H16.45C17.7955 20.75 18.8537 19.5734 18.7419 18.2016L17.9752 8.78989C17.8759 7.57038 16.8795 6.63235 15.6833 6.63235H14.3497M5.15026 6.63235H14.3497" stroke="black" stroke-width="1.5" stroke-linecap="round" stroke-linejoin="round"/>
</svg>
