<svg width="16" height="17" viewBox="0 0 16 17" fill="none" xmlns="http://www.w3.org/2000/svg">
<path d="M6.18182 2.83333H9.81818C9.81818 2.36368 9.62662 1.91326 9.28565 1.58117C8.94467 1.24907 8.48221 1.0625 8 1.0625C7.51779 1.0625 7.05533 1.24907 6.71435 1.58117C6.37338 1.91326 6.18182 2.36368 6.18182 2.83333ZM5.09091 2.83333C5.09091 2.08189 5.3974 1.36122 5.94296 0.829864C6.48852 0.298511 7.22846 0 8 0C8.77154 0 9.51148 0.298511 10.057 0.829864C10.6026 1.36122 10.9091 2.08189 10.9091 2.83333H15.4545C15.5992 2.83333 15.7379 2.8893 15.8402 2.98893C15.9425 3.08856 16 3.22369 16 3.36458C16 3.50548 15.9425 3.6406 15.8402 3.74023C15.7379 3.83986 15.5992 3.89583 15.4545 3.89583H14.5018L13.6167 14.2396C13.5523 14.9921 13.2 15.6935 12.6295 16.2048C12.059 16.7161 11.312 16.9999 10.5367 17H5.46327C4.68799 16.9999 3.94105 16.7161 3.37055 16.2048C2.80005 15.6935 2.44767 14.9921 2.38327 14.2396L1.49818 3.89583H0.545455C0.400791 3.89583 0.262052 3.83986 0.15976 3.74023C0.0574673 3.6406 0 3.50548 0 3.36458C0 3.22369 0.0574673 3.08856 0.15976 2.98893C0.262052 2.8893 0.400791 2.83333 0.545455 2.83333H5.09091ZM3.47055 14.1511C3.51214 14.638 3.74009 15.0919 4.1092 15.4228C4.47831 15.7537 4.96161 15.9374 5.46327 15.9375H10.5367C11.0384 15.9374 11.5217 15.7537 11.8908 15.4228C12.2599 15.0919 12.4879 14.638 12.5295 14.1511L13.408 3.89583H2.59273L3.47055 14.1511ZM6.36364 6.375C6.5083 6.375 6.64704 6.43097 6.74933 6.5306C6.85162 6.63023 6.90909 6.76535 6.90909 6.90625V12.9271C6.90909 13.068 6.85162 13.2031 6.74933 13.3027C6.64704 13.4024 6.5083 13.4583 6.36364 13.4583C6.21897 13.4583 6.08024 13.4024 5.97794 13.3027C5.87565 13.2031 5.81818 13.068 5.81818 12.9271V6.90625C5.81818 6.76535 5.87565 6.63023 5.97794 6.5306C6.08024 6.43097 6.21897 6.375 6.36364 6.375ZM10.1818 6.90625C10.1818 6.76535 10.1244 6.63023 10.0221 6.5306C9.91977 6.43097 9.78103 6.375 9.63636 6.375C9.4917 6.375 9.35296 6.43097 9.25067 6.5306C9.14838 6.63023 9.09091 6.76535 9.09091 6.90625V12.9271C9.09091 13.068 9.14838 13.2031 9.25067 13.3027C9.35296 13.4024 9.4917 13.4583 9.63636 13.4583C9.78103 13.4583 9.91977 13.4024 10.0221 13.3027C10.1244 13.2031 10.1818 13.068 10.1818 12.9271V6.90625Z" fill="white"/>
</svg>
