<svg width="52" height="52" viewBox="0 0 52 52" fill="none" xmlns="http://www.w3.org/2000/svg">
<path d="M39.6124 25.5996C39.3639 27.4509 39.4633 29.327 39.6596 33.0816L40.507 44.291C40.507 46.0479 40.2088 46.9872 38.6309 47.8345C32.1378 51.3208 19.0573 51.3208 12.5643 47.8345C10.9864 46.9872 10.6882 46.0454 10.6882 44.291L11.5355 33.0841C11.7343 29.3294 11.8312 27.4509 11.5803 25.5996" stroke="#272727" stroke-width="1.5" stroke-linecap="round" stroke-linejoin="round"/>
<path d="M30.5675 38.0242C30.5675 40.1985 31.6086 41.5502 33.0524 42.994M20.6278 38.0242C20.6278 40.1985 19.5867 41.5502 18.1429 42.994" stroke="#272727" stroke-width="1.5" stroke-linecap="round"/>
<path d="M23.8135 17.5162L14.1671 12.9192L14.1573 12.9145C12.0293 11.9013 10.9637 11.3939 10.7329 10.0914C10.5018 8.78679 11.1777 8.02144 12.532 6.48826C19.2959 -1.16275 31.8993 -1.16275 38.6632 6.48826L38.6737 6.50013C40.0185 8.0254 40.6928 8.79016 40.4623 10.0914C40.2337 11.3935 39.1652 11.9029 37.0282 12.9192L27.3818 17.5162C26.5021 17.9362 26.0623 18.1449 25.5976 18.1449C25.1329 18.1449 24.6931 17.9362 23.8135 17.5162Z" stroke="#272727" stroke-width="1.5" stroke-linecap="round" stroke-linejoin="round"/>
<path d="M30.5674 10.6903L25.5976 18.145L20.6278 10.6903M11.6424 11.9328C8.28781 12.5962 5.28853 15.7098 3.20618 18.4979C1.87179 20.282 1.20584 21.1766 0.875346 22.8241C0.544854 24.4741 0.89274 25.8507 1.58851 28.6015L4.81888 41.349C5.39041 43.6053 8.20332 43.2698 10.6882 40.7626M39.5528 11.9328C42.9075 12.5962 45.9067 15.7098 47.9891 18.4979C49.3235 20.282 49.9894 21.1766 50.3199 22.8241C50.6504 24.4741 50.3025 25.8507 49.6068 28.6015L46.3764 41.349C45.8049 43.6053 42.9919 43.25 40.507 42.015" stroke="#272727" stroke-width="1.5" stroke-linecap="round" stroke-linejoin="round"/>
</svg>
