<svg width="43" height="43" viewBox="0 0 43 43" fill="none" xmlns="http://www.w3.org/2000/svg">
<path d="M30.3889 1.5C36.5222 1.5 41.5 6.47778 41.5 12.6111V30.3889C41.5 36.5222 36.5222 41.5 30.3889 41.5H12.6111C6.47778 41.5 1.5 36.5222 1.5 30.3889V12.6111C1.5 6.47778 6.47778 1.5 12.6111 1.5H21.5H30.3889Z" stroke="black" stroke-width="3" stroke-linecap="round" stroke-linejoin="round"/>
<path d="M21.5001 12.6113C26.4112 12.6113 30.389 16.5891 30.389 21.5002C30.389 26.4113 26.4112 30.3891 21.5001 30.3891C16.589 30.3891 12.6112 26.4113 12.6112 21.5002C12.6112 16.5891 16.589 12.6113 21.5001 12.6113Z" stroke="black" stroke-width="3" stroke-linecap="round" stroke-linejoin="round"/>
<path d="M32.611 13.7223C34.452 13.7223 35.9444 12.2299 35.9444 10.389C35.9444 8.54805 34.452 7.05566 32.611 7.05566C30.7701 7.05566 29.2777 8.54805 29.2777 10.389C29.2777 12.2299 30.7701 13.7223 32.611 13.7223Z" fill="black"/>
</svg>
