<svg width="52" height="52" viewBox="0 0 52 52" fill="none" xmlns="http://www.w3.org/2000/svg">
<path d="M21.4869 2.58828C22.0048 2.0099 22.6388 1.54723 23.3476 1.23048C24.0564 0.913721 24.8241 0.75 25.6004 0.75C26.3768 0.75 27.1444 0.913721 27.8532 1.23048C28.562 1.54723 29.196 2.0099 29.7139 2.58828L31.6464 4.74716C32.1987 5.36417 32.8827 5.84905 33.6478 6.16588C34.4129 6.48272 35.2395 6.6234 36.0663 6.57752L38.965 6.4174C39.7404 6.37466 40.516 6.49594 41.2413 6.77332C41.9666 7.0507 42.6252 7.47794 43.1741 8.02714C43.7231 8.57635 44.15 9.23517 44.427 9.96058C44.7041 10.686 44.825 11.4617 44.7819 12.237L44.6218 15.133C44.5763 15.9594 44.7172 16.7854 45.034 17.55C45.3508 18.3145 45.8355 18.9981 46.4521 19.5501L48.611 21.4826C49.1898 22.0005 49.6529 22.6347 49.9699 23.3438C50.287 24.0528 50.4508 24.8208 50.4508 25.5975C50.4508 26.3742 50.287 27.1421 49.9699 27.8512C49.6529 28.5602 49.1898 29.1944 48.611 29.7123L46.4521 31.6448C45.8351 32.1971 45.3502 32.8812 45.0334 33.6463C44.7166 34.4114 44.5759 35.2379 44.6218 36.0647L44.7819 38.9635C44.8246 39.7388 44.7033 40.5145 44.426 41.2397C44.1486 41.965 43.7213 42.6236 43.1721 43.1726C42.6229 43.7215 41.9641 44.1485 41.2387 44.4255C40.5133 44.7025 39.7376 44.8234 38.9623 44.7803L36.0663 44.6202C35.2399 44.5747 34.4139 44.7156 33.6493 45.0324C32.8847 45.3493 32.2012 45.8339 31.6491 46.4506L29.7166 48.6094C29.1987 49.1883 28.5646 49.6513 27.8555 49.9684C27.1465 50.2854 26.3785 50.4493 25.6018 50.4493C24.8251 50.4493 24.0571 50.2854 23.3481 49.9684C22.639 49.6513 22.0048 49.1883 21.4869 48.6094L19.5544 46.4506C19.0021 45.8335 18.3181 45.3487 17.553 45.0318C16.7879 44.715 15.9614 44.5743 15.1345 44.6202L12.2358 44.7803C11.4604 44.8231 10.6848 44.7018 9.95953 44.4244C9.23425 44.147 8.57564 43.7198 8.02669 43.1706C7.47774 42.6214 7.05081 41.9626 6.77378 41.2371C6.49674 40.5117 6.37583 39.736 6.41894 38.9607L6.57906 36.0647C6.62453 35.2384 6.48364 34.4123 6.16681 33.6478C5.84999 32.8832 5.36534 32.1996 4.74871 31.6476L2.58982 29.7151C2.01099 29.1972 1.54793 28.563 1.2309 27.854C0.913868 27.1449 0.75 26.3769 0.75 25.6002C0.75 24.8235 0.913868 24.0556 1.2309 23.3465C1.54793 22.6375 2.01099 22.0033 2.58982 21.4854L4.74871 19.5529C5.36572 19.0006 5.85059 18.3165 6.16743 17.5515C6.48426 16.7864 6.62495 15.9598 6.57906 15.133L6.41894 12.2342C6.3766 11.4591 6.49818 10.6838 6.77574 9.95885C7.0533 9.2339 7.4806 8.57563 8.02977 8.02699C8.57893 7.47835 9.23761 7.05167 9.96282 6.7748C10.688 6.49793 11.4635 6.37708 12.2385 6.42016L15.1345 6.58028C15.9609 6.62574 16.7869 6.48485 17.5515 6.16803C18.3161 5.85121 18.9997 5.36656 19.5517 4.74992L21.4869 2.58828Z" stroke="#272727" stroke-width="1.5"/>
<path d="M18.6987 18.6971H18.7263V18.7247H18.6987V18.6971ZM32.5023 32.5007H32.5299V32.5283H32.5023V32.5007Z" stroke="#272727" stroke-width="1.5" stroke-linejoin="round"/>
<path d="M33.8827 17.3167L17.3184 33.881" stroke="#272727" stroke-width="1.5" stroke-linecap="round" stroke-linejoin="round"/>
</svg>
