<svg width="46" height="50" viewBox="0 0 46 50" fill="none" xmlns="http://www.w3.org/2000/svg">
<path d="M8.36719 0.125H36.9141C37.603 0.124873 38.2683 0.379254 38.7852 0.839844C39.302 1.30046 39.635 1.93572 39.7207 2.62695L45.1348 46.3623C45.1846 46.7645 45.1487 47.1733 45.0303 47.5605C44.9119 47.9476 44.7136 48.3048 44.4482 48.6084C44.1827 48.9121 43.8558 49.1558 43.4902 49.3223C43.1249 49.4885 42.7287 49.5743 42.3281 49.5742H32.3145L32.0791 49.5645C31.5337 49.5187 31.0109 49.3143 30.5762 48.9727C30.1414 48.6309 29.8166 48.1689 29.6387 47.6455L29.5713 47.418V47.417L22.7617 20.8428H22.5195L15.71 47.417V47.418C15.5555 48.0348 15.2019 48.5822 14.7051 48.9727C14.2082 49.3631 13.5961 49.5745 12.9668 49.5742H2.9541C2.55328 49.5743 2.1565 49.4887 1.79102 49.3223C1.42547 49.1558 1.09854 48.9121 0.833008 48.6084C0.567677 48.3048 0.369331 47.9476 0.250977 47.5605C0.132589 47.1733 0.0966397 46.7645 0.146484 46.3623L5.56055 2.62695C5.64622 1.93578 5.97932 1.30046 6.49609 0.839844C7.0129 0.379323 7.67836 0.12495 8.36719 0.125ZM15.5791 9.92871C15.3408 12.5522 14.1627 14.9978 12.2666 16.8066C10.3706 18.6153 7.88655 19.6636 5.28027 19.7549L5.17285 19.7588L5.16016 19.8643L1.8457 46.5771C1.82598 46.7352 1.83998 46.8966 1.88672 47.0488C1.93343 47.2007 2.0115 47.3409 2.11621 47.46C2.22114 47.5792 2.35061 47.6744 2.49512 47.7393C2.63951 47.804 2.79601 47.8361 2.9541 47.835V47.8359H12.9668C13.2132 47.8364 13.4527 47.7544 13.6475 47.6025C13.8422 47.4505 13.9815 47.2372 14.043 46.9971L21.7773 16.8018L21.7812 16.7871V9.81445H15.5898L15.5791 9.92871ZM23.5 16.7871L23.5039 16.8018L31.2354 46.9795V46.9805C31.2938 47.2242 31.4324 47.4414 31.6279 47.5967C31.8235 47.7519 32.0653 47.836 32.3145 47.8359H42.3281C42.4854 47.836 42.6408 47.8024 42.7842 47.7373C42.9277 47.6721 43.056 47.5769 43.1602 47.458L43.1592 47.457C43.2644 47.3387 43.345 47.2002 43.3926 47.0488C43.4284 46.935 43.4457 46.8162 43.4443 46.6973L43.4365 46.5781L40.1211 19.8643L40.1084 19.7588L40.002 19.7549L39.5146 19.7266C37.087 19.5296 34.7923 18.5025 33.0146 16.8066C31.1185 14.9978 29.9405 12.5522 29.7021 9.92871L29.6924 9.81445H23.5V16.7871ZM6.39062 9.9248L5.40918 17.8516L5.38965 18.002L5.54102 17.9912C7.6388 17.8446 9.61974 16.96 11.1377 15.4912C12.6554 14.0225 13.6152 12.0631 13.8496 9.9541L13.8643 9.81445H6.4043L6.39062 9.9248ZM31.4326 9.9541C31.6671 12.0631 32.6267 14.0225 34.1445 15.4912C35.6625 16.9599 37.6425 17.8446 39.7402 17.9912L39.8916 18.002L39.873 17.8516L38.8906 9.9248L38.877 9.81445H31.417L31.4326 9.9541ZM8.36816 1.86328C8.09629 1.86126 7.83321 1.96011 7.62891 2.14062C7.42478 2.3211 7.29372 2.57052 7.25977 2.8418L7.25879 2.84277L6.63672 7.93652L6.61914 8.07715H38.6621L38.6445 7.93652L38.0225 2.84277V2.8418C37.9885 2.57041 37.8566 2.32113 37.6523 2.14062C37.4482 1.96026 37.1857 1.86142 36.9141 1.86328H8.36816Z" fill="#272727" stroke="white" stroke-width="0.25"/>
</svg>
