<svg width="35" height="40" viewBox="0 0 35 40" fill="none" xmlns="http://www.w3.org/2000/svg">
<path d="M27.7679 6.26667C26.2424 4.53228 25.4016 2.30533 25.4018 0H18.5045V27.5556C18.4524 29.0471 17.8204 30.4602 16.7418 31.4967C15.6632 32.5332 14.2223 33.112 12.7232 33.1111C9.55357 33.1111 6.91964 30.5333 6.91964 27.3333C6.91964 23.5111 10.625 20.6444 14.442 21.8222V14.8C6.74107 13.7778 0 19.7333 0 27.3333C0 34.7333 6.16072 40 12.7009 40C19.7098 40 25.4018 34.3333 25.4018 27.3333V13.3556C28.1987 15.3552 31.5566 16.4281 35 16.4222V9.55556C35 9.55556 30.8036 9.75556 27.7679 6.26667Z" fill="black"/>
</svg>
