<svg width="50" height="50" viewBox="0 0 50 50" fill="none" xmlns="http://www.w3.org/2000/svg">
<path d="M49.3663 12.2321C46.27 6.06178 44.1818 2.62418 43.1589 2.01535C42.3496 1.53657 40.9505 1.40238 38.3405 1.18784C36.3865 1.02797 33.9562 0.828338 32.867 0.401744L31.8398 0L31.1291 0.846562C31.0753 0.908687 28.5025 3.85094 24.8505 3.85094C21.1752 3.85094 18.5933 0.876382 18.5676 0.845733L17.8528 0.00828338L16.8315 0.402572C15.7422 0.829995 13.3128 1.0288 11.3596 1.18784C8.74873 1.40238 7.34887 1.53657 6.54208 2.01452C5.51579 2.62418 3.42759 6.06178 0.332985 12.2321L0 12.8947L0.291569 13.5781C3.02503 20.0002 9.47103 21.4125 9.74437 21.4697L10.5992 21.6478L9.72615 44.8761L9.69053 45.8303L10.5048 46.3066C18.2314 50.8302 31.4654 50.8302 39.1929 46.3066L40.0071 45.8303L39.9706 44.8761L39.0976 21.6478L39.9524 21.4697C40.2258 21.4125 46.6718 20.0002 49.4061 13.5781L49.6993 12.8947L49.3663 12.2321ZM45.1965 14.6533C43.4247 16.9246 41.2454 18.1812 38.7066 18.3999L37.3391 16.2313L38.4184 44.9357C30.9146 49.3284 18.7847 49.3292 11.2801 44.9357L12.3586 16.2313L11.0382 18.3477C8.50106 18.129 6.32009 16.8708 4.5508 14.6019C3.75296 13.5658 3.099 12.4264 2.60673 11.2149L2.55454 11.3143C3.90222 8.71412 6.48741 3.87745 7.32485 3.37962C8.34451 2.77493 13.5389 2.80972 16.4066 2.15699C17.175 2.94005 18.0194 3.64484 18.9271 4.26097C19.7673 4.82967 20.671 5.2981 21.62 5.65672C22.7672 6.08249 23.9194 6.29786 25.0526 6.29786H25.0857C26.4566 6.29123 27.8026 5.97066 29.0882 5.34113C30.5071 4.64698 31.8663 3.56351 33.1386 2.12552C35.9732 2.81221 41.3357 2.76416 42.3736 3.37962C43.2077 3.87662 45.7797 8.68264 47.1315 11.2894C46.6411 12.4928 45.9902 13.6244 45.1965 14.6533Z" fill="#272727"/>
</svg>
