<svg width="17" height="17" viewBox="0 0 17 17" fill="none" xmlns="http://www.w3.org/2000/svg">
<path fill-rule="evenodd" clip-rule="evenodd" d="M12.6831 0.718383C12.5143 0.448633 12.2656 0.238229 11.9716 0.116459C11.6776 -0.00531066 11.353 -0.0323881 11.0429 0.038997L8.84204 0.544558C8.6165 0.596401 8.38213 0.596401 8.15658 0.544558L5.95576 0.038997C5.64566 -0.0323881 5.32103 -0.00531066 5.02705 0.116459C4.73306 0.238229 4.48435 0.448633 4.31554 0.718383L3.11598 2.6329C2.99358 2.82876 2.82833 2.99402 2.63249 3.11766L0.718091 4.31729C0.448824 4.48597 0.238742 4.73429 0.117006 5.02779C-0.00472974 5.32129 -0.0320811 5.64541 0.0387486 5.95516L0.544277 8.15858C0.59593 8.38375 0.59593 8.61769 0.544277 8.84286L0.0387486 11.045C-0.0323564 11.355 -0.00514267 11.6794 0.116606 11.9731C0.238355 12.2669 0.448591 12.5154 0.718091 12.6841L2.63249 13.8838C2.82833 14.0062 2.99358 14.1714 3.11721 14.3673L4.31677 16.2818C4.66195 16.8339 5.32048 17.1069 5.95576 16.9612L8.15658 16.4557C8.38213 16.4038 8.6165 16.4038 8.84204 16.4557L11.0441 16.9612C11.354 17.0323 11.6784 17.0051 11.9721 16.8834C12.2658 16.7616 12.5143 16.5513 12.6831 16.2818L13.8826 14.3673C14.005 14.1714 14.1703 14.0062 14.3661 13.8838L16.2818 12.6841C16.5513 12.5152 16.7614 12.2664 16.8829 11.9724C17.0045 11.6784 17.0314 11.3538 16.9599 11.0438L16.4556 8.84286C16.4037 8.6173 16.4037 8.38291 16.4556 8.15735L16.9611 5.95516C17.0323 5.64536 17.0053 5.32106 16.8838 5.02732C16.7622 4.73358 16.5523 4.48499 16.283 4.31607L14.3674 3.11643C14.1718 2.9938 14.0065 2.82849 13.8839 2.6329L12.6831 0.718383ZM12.0674 5.77032C12.1431 5.6311 12.1619 5.46793 12.1197 5.31516C12.0776 5.16239 11.9778 5.03191 11.8415 4.95119C11.7051 4.87047 11.5427 4.8458 11.3885 4.88237C11.2343 4.91893 11.1003 5.01388 11.0147 5.14724L7.81385 10.5652L5.88109 8.71433C5.82375 8.65545 5.75514 8.60872 5.67936 8.57693C5.60357 8.54515 5.52216 8.52895 5.43998 8.52931C5.3578 8.52967 5.27653 8.54657 5.20102 8.57902C5.12552 8.61147 5.05732 8.65879 5.00049 8.71817C4.94367 8.77754 4.89939 8.84776 4.87029 8.92462C4.84118 9.00148 4.82786 9.08342 4.8311 9.16554C4.83435 9.24766 4.8541 9.32829 4.88918 9.40261C4.92426 9.47694 4.97395 9.54344 5.03528 9.59814L7.52498 11.9839C7.59161 12.0477 7.67178 12.0955 7.75949 12.1239C7.84721 12.1523 7.94021 12.1605 8.03154 12.1479C8.12287 12.1353 8.21017 12.1022 8.28693 12.0512C8.36369 12.0001 8.42792 11.9323 8.47483 11.853L12.0674 5.77032Z" fill="black"/>
</svg>
